<svg height="511pt" viewBox="1 -31 511.99998 511" width="511pt" xmlns="http://www.w3.org/2000/svg"><path d="m128 448.5c-8.835938 0-16-7.164062-16-16v-80h-64c-26.511719 0-48-21.492188-48-48v-256c0-26.511719 21.488281-48 48-48h416c26.511719 0 48 21.488281 48 48v256c0 26.507812-21.488281 48-48 48h-233.375l-91.3125 91.3125c-3 3-7.070312 4.6875-11.3125 4.6875zm-80-416c-8.835938 0-16 7.164062-16 16v256c0 8.835938 7.164062 16 16 16h80c8.835938 0 16 7.164062 16 16v57.375l68.6875-68.6875c3-3 7.070312-4.6875 11.3125-4.6875h240c8.835938 0 16-7.164062 16-16v-256c0-8.835938-7.164062-16-16-16zm0 0"/></svg>