<?xml version="1.0" encoding="UTF-8"?><!DOCTYPE svg PUBLIC "-//W3C//DTD SVG 1.1//EN" "http://www.w3.org/Graphics/SVG/1.1/DTD/svg11.dtd"><svg xmlns="http://www.w3.org/2000/svg"><symbol id="icon-arrow-down" viewBox="0 0 309.156 309.156">
    <path d="M288.461 64.929L154.589 202.766 20.723 64.94 0 85.07l154.589 159.158L309.156 85.07z"/>
</symbol><symbol id="icon-arrow-left" viewBox="0 0 129 129">
    <path d="M88.6 121.3c.8.8 1.8 1.2 2.9 1.2s2.1-.4 2.9-1.2c1.6-1.6 1.6-4.2 0-5.8l-51-51 51-51c1.6-1.6 1.6-4.2 0-5.8s-4.2-1.6-5.8 0l-54 53.9c-1.6 1.6-1.6 4.2 0 5.8l54 53.9z"/>
</symbol><symbol id="icon-arrow-right" viewBox="0 0 407.436 407.436">
    <path d="M112.814 0L91.566 21.178l181.946 182.54-181.946 182.54 21.248 21.178 203.055-203.718z"/>
</symbol><symbol id="icon-basket" viewBox="0 0 313.774 313.774">
    <g>
        <path d="M82.543 90.079h22.398c7.843-29.632 28.669-51.492 52.465-51.492s44.622 21.854 52.465 51.492h22.392c-8.86-42.158-38.971-73.248-74.858-73.248s-66.002 31.09-74.862 73.248z"/>
        <path d="M234.032 100.957H28.098L0 296.943h313.774l-28.098-195.986z"/>
    </g>
</symbol><symbol id="icon-chat" viewBox="1 -31 511.99998 511">
    <path d="M128 448.5c-8.836 0-16-7.164-16-16v-80H48c-26.512 0-48-21.492-48-48v-256C0 21.988 21.488.5 48 .5h416c26.512 0 48 21.488 48 48v256c0 26.508-21.488 48-48 48H230.625l-91.313 91.313c-3 3-7.07 4.687-11.312 4.687zm-80-416c-8.836 0-16 7.164-16 16v256c0 8.836 7.164 16 16 16h80c8.836 0 16 7.164 16 16v57.375l68.688-68.688c3-3 7.07-4.687 11.312-4.687h240c8.836 0 16-7.164 16-16v-256c0-8.836-7.164-16-16-16zm0 0"/>
</symbol><symbol id="icon-check" viewBox="0 0 512 512">
    <path d="M504.502 75.496c-9.997-9.998-26.205-9.998-36.204 0L161.594 382.203 43.702 264.311c-9.997-9.998-26.205-9.997-36.204 0-9.998 9.997-9.998 26.205 0 36.203l135.994 135.992c9.994 9.997 26.214 9.99 36.204 0L504.502 111.7c9.998-9.997 9.997-26.206 0-36.204z"/>
</symbol><symbol id="icon-facebook" viewBox="0 0 10 19">
    <title>
        facebook
    </title>
    <path d="M9.766.157v2.946H8.014c-.64 0-1.071.134-1.295.402-.223.268-.335.67-.335 1.205v2.11h3.27l-.435 3.303H6.384v8.471H2.97v-8.47H.123V6.82H2.97V4.387c0-1.384.387-2.457 1.161-3.22C4.904.404 5.934.023 7.222.023c1.093 0 1.941.045 2.544.134z" fill-rule="evenodd"/>
</symbol><symbol id="icon-in" viewBox="0 0 430.117 430.117">
    <path d="M430.117 261.543V420.56h-92.188V272.193c0-37.271-13.334-62.707-46.703-62.707-25.473 0-40.632 17.142-47.301 33.724-2.432 5.928-3.058 14.179-3.058 22.477V420.56h-92.219s1.242-251.285 0-277.32h92.21v39.309c-.187.294-.43.611-.606.896h.606v-.896c12.251-18.869 34.13-45.824 83.102-45.824 60.673-.001 106.157 39.636 106.157 124.818zM52.183 9.558C20.635 9.558 0 30.251 0 57.463c0 26.619 20.038 47.94 50.959 47.94h.616c32.159 0 52.159-21.317 52.159-47.94-.606-27.212-20-47.905-51.551-47.905zM5.477 420.56h92.184V143.24H5.477v277.32z"/>
</symbol><symbol id="icon-mail" viewBox="0 0 511.999 511.999">
    <path d="M444.253 47.065H67.747C30.392 47.065.002 77.456.002 114.81v282.379c0 37.355 30.39 67.745 67.745 67.745h376.506c37.355 0 67.745-30.391 67.745-67.745V114.81c0-37.355-30.39-67.745-67.745-67.745zm26.381 350.124c0 14.546-11.835 26.381-26.381 26.381H67.747c-14.546 0-26.381-11.835-26.381-26.381V114.81c0-14.546 11.835-26.381 26.381-26.381h376.506c14.546 0 26.381 11.835 26.381 26.381v282.379z"/>
    <path d="M508.259 102.95c-6.549-9.357-19.443-11.633-28.804-5.083L255.999 254.284 32.544 97.866c-9.357-6.551-22.253-4.274-28.803 5.083s-4.274 22.253 5.083 28.803L244.14 296.474a20.652 20.652 0 0 0 11.86 3.738c4.149 0 8.299-1.246 11.86-3.738l235.316-164.721c9.357-6.55 11.633-19.446 5.083-28.803z"/>
</symbol><symbol id="icon-people" viewBox="0 0 485.211 485.21">
    <path d="M394.235 333.585h-30.327c-33.495 0-60.653-27.158-60.653-60.654v-19.484c13.418-15.948 23.042-34.812 29.024-54.745.621-3.36 3.855-5.02 6.012-7.33 11.611-11.609 13.894-31.2 5.185-45.149-1.186-2.117-3.322-3.953-3.201-6.576 0-17.784.089-35.596-.023-53.366-.476-21.455-6.608-43.773-21.65-59.66-12.144-12.836-28.819-20.479-46.022-23.75-21.739-4.147-44.482-3.937-66.013 1.54-18.659 4.709-36.189 15.637-47.028 31.836-9.598 14.083-13.803 31.183-14.513 48.036-.266 18.094-.061 36.233-.116 54.371.413 3.631-2.667 6.088-4.058 9.094-8.203 14.881-4.592 35.155 8.589 45.978 3.344 2.308 3.97 6.515 5.181 10.142 5.748 17.917 15.282 34.487 27.335 48.925v20.138c0 33.496-27.157 60.654-60.651 60.654H90.978S36.014 348.743 0 424.56v30.327c0 16.759 13.564 30.321 30.327 30.321h424.562c16.759 0 30.322-13.562 30.322-30.321V424.56c-36.012-75.811-90.976-90.975-90.976-90.975z"/>
</symbol><symbol id="icon-search" viewBox="0 0 56.966 56.966">
    <path d="M55.146 51.887L41.588 37.786A22.926 22.926 0 0 0 46.984 23c0-12.682-10.318-23-23-23s-23 10.318-23 23 10.318 23 23 23c4.761 0 9.298-1.436 13.177-4.162l13.661 14.208c.571.593 1.339.92 2.162.92.779 0 1.518-.297 2.079-.837a3.004 3.004 0 0 0 .083-4.242zM23.984 6c9.374 0 17 7.626 17 17s-7.626 17-17 17-17-7.626-17-17 7.626-17 17-17z"/>
</symbol><symbol id="icon-star" viewBox="0 0 306 306">
    <path d="M153 230.775l94.35 68.85-35.7-112.2 94.35-66.3H191.25L153 6.375l-38.25 114.75H0l94.35 66.3-35.7 112.2z"/>
</symbol><symbol id="icon-twitter" viewBox="0 0 612 612">
    <path d="M612 116.258a250.714 250.714 0 0 1-72.088 19.772c25.929-15.527 45.777-40.155 55.184-69.411-24.322 14.379-51.169 24.82-79.775 30.48-22.907-24.437-55.49-39.658-91.63-39.658-69.334 0-125.551 56.217-125.551 125.513 0 9.828 1.109 19.427 3.251 28.606-104.326-5.24-196.835-55.223-258.75-131.174-10.823 18.51-16.98 40.078-16.98 63.101 0 43.559 22.181 81.993 55.835 104.479a125.556 125.556 0 0 1-56.867-15.756v1.568c0 60.806 43.291 111.554 100.693 123.104-10.517 2.83-21.607 4.398-33.08 4.398-8.107 0-15.947-.803-23.634-2.333 15.985 49.907 62.336 86.199 117.253 87.194-42.947 33.654-97.099 53.655-155.916 53.655-10.134 0-20.116-.612-29.944-1.721 55.567 35.681 121.536 56.485 192.438 56.485 230.948 0 357.188-191.291 357.188-357.188l-.421-16.253c24.666-17.593 46.005-39.697 62.794-64.861z"/>
</symbol></svg>